HIERARCHY
ROOT Hips
{
	OFFSET 0.000000 71.427986 0.000000
	CHANNELS 6 Xposition Yposition Zposition Xrotation Yrotation Zrotation
	JOINT Pelvis
	{
		OFFSET 0.000000 0.000000 0.000000
		CHANNELS 3 Xrotation Yrotation Zrotation
		JOINT LeftUpLeg
		{
			OFFSET 6.797100 -2.508499 -1.318700
			CHANNELS 3 Xrotation Yrotation Zrotation
			JOINT LeftLeg
			{
				OFFSET 0.069008 -29.241863 0.690200
				CHANNELS 3 Xrotation Yrotation Zrotation
				JOINT LeftFoot
				{
					OFFSET -0.069008 -29.568123 -0.266800
					CHANNELS 3 Xrotation Yrotation Zrotation
					JOINT LeftToeBase
					{
						OFFSET 3.145500 -8.631000 16.059900
						CHANNELS 3 Xrotation Yrotation Zrotation
						End Site
						{
							OFFSET 0.000000 18.501587 0.000000
						}
					}
				}
			}
			JOINT Left_ShortSleeve
			{
				OFFSET 0.265923 -10.480953 1.153800
				CHANNELS 3 Xrotation Yrotation Zrotation
				End Site
				{
					OFFSET 1.725763 19.823879 0.000000
				}
			}
		}
		JOINT RightUpLeg
		{
			OFFSET -6.797100 -2.508499 -1.318700
			CHANNELS 3 Xrotation Yrotation Zrotation
			JOINT RightLeg
			{
				OFFSET -0.082453 -29.241932 0.688000
				CHANNELS 3 Xrotation Yrotation Zrotation
				JOINT RightFoot
				{
					OFFSET 0.082453 -29.568058 -0.264600
					CHANNELS 3 Xrotation Yrotation Zrotation
					JOINT RightToeBase
					{
						OFFSET -3.115300 -8.682800 16.113400
						CHANNELS 3 Xrotation Yrotation Zrotation
						End Site
						{
							OFFSET 0.000000 18.567114 0.000000
						}
					}
				}
			}
			JOINT Right_ShortSleeve
			{
				OFFSET -0.265923 -10.480953 1.153800
				CHANNELS 3 Xrotation Yrotation Zrotation
				End Site
				{
					OFFSET -1.725766 19.823910 0.000000
				}
			}
		}
	}
	JOINT Spine
	{
		OFFSET 0.000000 13.368103 0.470500
		CHANNELS 3 Xrotation Yrotation Zrotation
		JOINT Spine1
		{
			OFFSET 0.147000 13.837402 0.538800
			CHANNELS 3 Xrotation Yrotation Zrotation
			JOINT Spine2
			{
				OFFSET 0.168000 16.242897 -1.435500
				CHANNELS 3 Xrotation Yrotation Zrotation
				JOINT Neck
				{
					OFFSET 0.217200 18.631500 -1.679100
					CHANNELS 3 Xrotation Yrotation Zrotation
					JOINT Head
					{
						OFFSET 0.000000 6.599396 1.385900
						CHANNELS 3 Xrotation Yrotation Zrotation
						JOINT Hat
						{
							OFFSET -0.532200 27.220596 -10.096100
							CHANNELS 3 Xrotation Yrotation Zrotation
							End Site
							{
								OFFSET 0.000000 22.029861 0.000000
							}
						}
						JOINT HairD
						{
							OFFSET -10.777400 17.437393 -1.325900
							CHANNELS 3 Xrotation Yrotation Zrotation
							JOINT HairD1
							{
								OFFSET -3.290299 -11.051193 1.062200
								CHANNELS 3 Xrotation Yrotation Zrotation
								End Site
								{
									OFFSET 0.000000 11.579437 0.000000
								}
							}
						}
						JOINT HairB
						{
							OFFSET -10.777400 17.437393 1.467900
							CHANNELS 3 Xrotation Yrotation Zrotation
							JOINT HairB1
							{
								OFFSET -1.561200 -12.956299 3.590200
								CHANNELS 3 Xrotation Yrotation Zrotation
								End Site
								{
									OFFSET 0.000000 13.534866 0.000000
								}
							}
						}
						JOINT HairA
						{
							OFFSET 9.713100 17.437393 1.467900
							CHANNELS 3 Xrotation Yrotation Zrotation
							JOINT HairA1
							{
								OFFSET 1.561200 -12.956299 3.590200
								CHANNELS 3 Xrotation Yrotation Zrotation
								End Site
								{
									OFFSET 0.000000 13.534866 0.000000
								}
							}
						}
						JOINT HairC
						{
							OFFSET 9.713100 17.437393 -1.325900
							CHANNELS 3 Xrotation Yrotation Zrotation
							JOINT HairC1
							{
								OFFSET 3.290300 -11.051193 1.062200
								CHANNELS 3 Xrotation Yrotation Zrotation
								End Site
								{
									OFFSET 0.000000 11.579437 0.000000
								}
							}
						}
					}
				}
				JOINT LeftShoulder
				{
					OFFSET 5.101800 15.108002 -2.763700
					CHANNELS 3 Xrotation Yrotation Zrotation
					JOINT LeftArm
					{
						OFFSET 9.825497 2.506317 -1.597400
						CHANNELS 3 Xrotation Yrotation Zrotation
						JOINT LeftForeArm
						{
							OFFSET 21.966244 0.000000 0.000000
							CHANNELS 3 Xrotation Yrotation Zrotation
							JOINT LeftHand
							{
								OFFSET 33.879036 0.000000 0.000000
								CHANNELS 3 Xrotation Yrotation Zrotation
								JOINT LeftHandThumb1
								{
									OFFSET 6.715286 -2.359680 3.363841
									CHANNELS 3 Xrotation Yrotation Zrotation
									JOINT LeftHandThumb2
									{
										OFFSET 2.507072 -1.447464 1.447461
										CHANNELS 3 Xrotation Yrotation Zrotation
										JOINT LeftHandThumb3
										{
											OFFSET 2.898338 -1.673355 1.673357
											CHANNELS 3 Xrotation Yrotation Zrotation
											End Site
											{
												OFFSET -0.295959 3.727692 -0.131651
											}
										}
									}
								}
								JOINT LeftHandIndex1
								{
									OFFSET 14.190811 -0.254547 3.840278
									CHANNELS 3 Xrotation Yrotation Zrotation
									JOINT LeftHandIndex2
									{
										OFFSET 3.551727 0.000000 -0.000000
										CHANNELS 3 Xrotation Yrotation Zrotation
										JOINT LeftHandIndex3
										{
											OFFSET 2.894196 0.000000 0.000000
											CHANNELS 3 Xrotation Yrotation Zrotation
											End Site
											{
												OFFSET -1.000603 2.690872 0.366626
											}
										}
									}
								}
								JOINT LeftHandMiddle1
								{
									OFFSET 13.776489 0.000000 0.000000
									CHANNELS 3 Xrotation Yrotation Zrotation
									JOINT LeftHandMiddle2
									{
										OFFSET 3.438232 0.000000 0.000000
										CHANNELS 3 Xrotation Yrotation Zrotation
										JOINT LeftHandMiddle3
										{
											OFFSET 3.691551 0.000000 0.000000
											CHANNELS 3 Xrotation Yrotation Zrotation
											End Site
											{
												OFFSET -1.082298 3.499527 0.457670
											}
										}
									}
								}
								JOINT LeftHandRing1
								{
									OFFSET 13.966164 -0.268127 -3.067488
									CHANNELS 3 Xrotation Yrotation Zrotation
									JOINT LeftHandRing2
									{
										OFFSET 3.162567 0.000000 0.000000
										CHANNELS 3 Xrotation Yrotation Zrotation
										JOINT LeftHandRing3
										{
											OFFSET 3.324348 0.000000 0.000000
											CHANNELS 3 Xrotation Yrotation Zrotation
											End Site
											{
												OFFSET -0.861900 3.184998 0.405154
											}
										}
									}
								}
								JOINT LeftHandPinky1
								{
									OFFSET 13.131393 -0.168503 -5.746925
									CHANNELS 3 Xrotation Yrotation Zrotation
									JOINT LeftHandPinky2
									{
										OFFSET 2.849182 0.000000 0.000000
										CHANNELS 3 Xrotation Yrotation Zrotation
										JOINT LeftHandPinky3
										{
											OFFSET 2.805038 0.000000 0.000000
											CHANNELS 3 Xrotation Yrotation Zrotation
											End Site
											{
												OFFSET -0.882500 2.642609 0.325652
											}
										}
									}
								}
							}
							JOINT Left_Sleeve
							{
								OFFSET 6.592125 -0.646545 0.805568
								CHANNELS 3 Xrotation Yrotation Zrotation
								End Site
								{
									OFFSET -0.000179 20.275787 -0.000000
								}
							}
						}
					}
				}
				JOINT RightShoulder
				{
					OFFSET -5.731700 15.108002 -2.763700
					CHANNELS 3 Xrotation Yrotation Zrotation
					JOINT RightArm
					{
						OFFSET -9.825497 2.506317 -1.597400
						CHANNELS 3 Xrotation Yrotation Zrotation
						JOINT RightForeArm
						{
							OFFSET -21.966242 0.000000 0.000000
							CHANNELS 3 Xrotation Yrotation Zrotation
							JOINT RightHand
							{
								OFFSET -33.879032 0.000000 0.000000
								CHANNELS 3 Xrotation Yrotation Zrotation
								JOINT RightHandThumb1
								{
									OFFSET -6.715286 -2.359680 3.363841
									CHANNELS 3 Xrotation Yrotation Zrotation
									JOINT RightHandThumb2
									{
										OFFSET -2.507072 -1.447464 1.447461
										CHANNELS 3 Xrotation Yrotation Zrotation
										JOINT RightHandThumb3
										{
											OFFSET -2.898338 -1.673355 1.673357
											CHANNELS 3 Xrotation Yrotation Zrotation
											End Site
											{
												OFFSET 0.295959 3.727692 -0.131651
											}
										}
									}
								}
								JOINT RightHandIndex1
								{
									OFFSET -14.190811 -0.254547 3.840278
									CHANNELS 3 Xrotation Yrotation Zrotation
									JOINT RightHandIndex2
									{
										OFFSET -3.551727 0.000000 -0.000000
										CHANNELS 3 Xrotation Yrotation Zrotation
										JOINT RightHandIndex3
										{
											OFFSET -2.894196 0.000000 0.000000
											CHANNELS 3 Xrotation Yrotation Zrotation
											End Site
											{
												OFFSET 1.000603 2.690872 0.366626
											}
										}
									}
								}
								JOINT RightHandMiddle1
								{
									OFFSET -13.776489 0.000000 0.000000
									CHANNELS 3 Xrotation Yrotation Zrotation
									JOINT RightHandMiddle2
									{
										OFFSET -3.438232 0.000000 0.000000
										CHANNELS 3 Xrotation Yrotation Zrotation
										JOINT RightHandMiddle3
										{
											OFFSET -3.691551 0.000000 0.000000
											CHANNELS 3 Xrotation Yrotation Zrotation
											End Site
											{
												OFFSET 1.082298 3.499527 0.457670
											}
										}
									}
								}
								JOINT RightHandRing1
								{
									OFFSET -13.966164 -0.268127 -3.067488
									CHANNELS 3 Xrotation Yrotation Zrotation
									JOINT RightHandRing2
									{
										OFFSET -3.162567 0.000000 0.000000
										CHANNELS 3 Xrotation Yrotation Zrotation
										JOINT RightHandRing3
										{
											OFFSET -3.324348 0.000000 0.000000
											CHANNELS 3 Xrotation Yrotation Zrotation
											End Site
											{
												OFFSET 0.861900 3.184998 0.405154
											}
										}
									}
								}
								JOINT RightHandPinky1
								{
									OFFSET -13.131393 -0.168503 -5.746925
									CHANNELS 3 Xrotation Yrotation Zrotation
									JOINT RightHandPinky2
									{
										OFFSET -2.849182 0.000000 0.000000
										CHANNELS 3 Xrotation Yrotation Zrotation
										JOINT RightHandPinky3
										{
											OFFSET -2.805038 0.000000 0.000000
											CHANNELS 3 Xrotation Yrotation Zrotation
											End Site
											{
												OFFSET 0.882500 2.642609 0.325652
											}
										}
									}
								}
							}
							JOINT Right_Sleeve
							{
								OFFSET -6.592125 -0.646545 0.805568
								CHANNELS 3 Xrotation Yrotation Zrotation
								End Site
								{
									OFFSET 0.000179 20.275787 -0.000000
								}
							}
						}
					}
				}
				JOINT Bind_Right_JacketString
				{
					OFFSET -3.534800 11.969597 7.200700
					CHANNELS 3 Xrotation Yrotation Zrotation
					JOINT Bind_Right_JacketString1
					{
						OFFSET -0.319900 -6.102600 2.794100
						CHANNELS 3 Xrotation Yrotation Zrotation
						End Site
						{
							OFFSET 0.000000 6.719452 0.000000
						}
					}
				}
				JOINT Bind_Left_JacketString
				{
					OFFSET 2.904800 11.969597 7.200700
					CHANNELS 3 Xrotation Yrotation Zrotation
					JOINT Bind_Left_JacketString1
					{
						OFFSET 0.364800 -5.904503 3.186800
						CHANNELS 3 Xrotation Yrotation Zrotation
						End Site
						{
							OFFSET 0.000000 6.719513 0.000000
						}
					}
				}
				JOINT HairE
				{
					OFFSET 5.915200 17.612701 -11.592200
					CHANNELS 3 Xrotation Yrotation Zrotation
					JOINT HairE1
					{
						OFFSET 0.289200 -7.171898 -1.284500
						CHANNELS 3 Xrotation Yrotation Zrotation
						End Site
						{
							OFFSET 0.000000 7.291756 0.000000
						}
					}
				}
				JOINT HairF
				{
					OFFSET -0.864800 17.612701 -11.592200
					CHANNELS 3 Xrotation Yrotation Zrotation
					JOINT HairF1
					{
						OFFSET 0.000000 -14.087097 -2.127501
						CHANNELS 3 Xrotation Yrotation Zrotation
						End Site
						{
							OFFSET 0.000000 14.246841 0.000000
						}
					}
				}
				JOINT HairG
				{
					OFFSET -8.087700 17.612701 -11.592200
					CHANNELS 3 Xrotation Yrotation Zrotation
					JOINT HairG1
					{
						OFFSET -0.293600 -6.081398 -0.910100
						CHANNELS 3 Xrotation Yrotation Zrotation
						End Site
						{
							OFFSET 0.000000 6.156120 0.000000
						}
					}
				}
			}
		}
	}
	JOINT Pouch
	{
		OFFSET 0.000000 4.394501 10.847300
		CHANNELS 3 Xrotation Yrotation Zrotation
		End Site
		{
			OFFSET 0.000000 21.880577 0.000000
		}
	}
	JOINT Bag
	{
		OFFSET -13.229000 4.813004 -0.593300
		CHANNELS 3 Xrotation Yrotation Zrotation
		End Site
		{
			OFFSET 0.000000 21.880577 0.000000
		}
	}
	JOINT OccupyGuyFacialAnim_Joint
	{
		OFFSET 1.000000 -70.206398 -1.655000
		CHANNELS 3 Xrotation Yrotation Zrotation
		End Site
		{
			OFFSET 0.000000 21.880577 0.000000
		}
	}
}
MOTION
Frames: 5
Frame Time: 0.033333
-0.885487 68.971313 0.929040 -16.901479 -38.966506 -9.455775 -0.000000 -0.000001 -0.000001 -19.083096 44.159174 26.430812 24.769980 0.393120 -0.629628 -1.194362 1.353212 -2.805259 0.000000 0.000000 0.000000 0.000002 -0.000000 -0.000000 6.410627 4.895493 -5.696364 31.410257 -0.164547 1.096249 -23.334599 -17.528043 4.167456 -0.000000 0.000000 0.000000 0.000000 -0.000001 -0.000000 7.991656 -0.067811 -0.074529 16.413459 -0.125518 -0.745993 16.413506 -0.192903 -0.721093 0.367409 7.480976 0.837546 -6.982132 21.597273 11.882997 -0.000000 0.000003 -0.000001 -0.000000 0.000003 -0.000001 -0.000000 0.000003 -0.000001 -0.000000 0.000003 -0.000001 0.000001 -0.000001 -0.000001 -0.000000 0.000003 -0.000001 0.000001 -0.000001 -0.000001 -0.000000 0.000003 -0.000001 -0.000000 0.000003 -0.000001 -37.571071 -4.822507 1.545823 -41.628415 -7.015810 -61.684367 -0.000009 -64.995896 -0.000014 -119.359591 1.120100 32.550230 4.709215 9.560359 3.111992 19.473185 -1.474907 7.636922 -0.000001 -0.000004 -0.000000 -0.212818 3.933714 -36.747135 2.942129 5.078889 -60.144590 0.000001 -0.000000 -0.000002 0.405919 5.507044 -52.453155 3.387131 5.308621 -65.057456 0.000004 0.000001 0.000001 -0.074393 5.736747 -61.061434 4.055041 5.569519 -72.094914 0.000002 -0.000000 -0.000000 -6.565562 4.545144 -72.425209 3.299623 5.267217 -64.107821 -0.000004 -0.000001 0.000001 -0.000001 -0.000002 -0.000000 -41.176291 -8.605636 -9.942309 -46.819680 58.242970 100.948680 0.000316 98.442936 -0.000300 -52.463089 -17.216609 -29.273081 8.377156 -4.904148 11.021990 21.620207 -18.183874 -18.379197 -0.000001 -0.000001 -0.000001 -0.906344 1.614845 12.445584 0.748115 -2.533471 32.898286 -0.000001 -0.000001 0.000000 3.413076 -7.186266 51.650235 6.296814 -4.359583 110.634660 0.000000 -0.000000 -0.000003 -3.349040 -2.600417 57.010558 5.440873 -4.590910 99.698181 -0.000001 -0.000001 -0.000000 -3.996421 -3.303953 64.593850 4.058843 -4.618655 82.610510 -0.000000 0.000000 0.000001 0.000002 -0.000005 -0.000001 -0.000001 0.000002 -0.000001 0.000001 -0.000000 -0.000000 -0.000001 0.000002 -0.000000 -0.000001 0.000002 -0.000000 -0.000001 0.000002 -0.000001 0.000001 -0.000000 -0.000000 -0.000001 0.000002 -0.000000 -0.000001 0.000002 -0.000000 -0.000001 0.000002 -0.000001 0.000001 -0.000000 -0.000000 -0.000000 -0.000001 -0.000001 -0.000000 -0.000001 -0.000001 -0.000000 -0.000001 -0.000001 
-0.685906 68.944038 1.147277 -16.690740 -39.056767 -9.060145 -0.000000 -0.000002 -0.000000 -18.457905 43.494289 25.363791 25.217444 1.420564 -0.673664 -1.663385 1.293574 -2.840552 -0.000000 0.000000 -0.000000 -0.000003 -0.000001 -0.000001 6.184880 2.610816 -7.724977 31.047878 1.909479 0.083774 -21.888316 -14.047934 5.771190 -0.000000 0.000000 -0.000000 0.000001 -0.000002 -0.000001 8.003413 -0.170627 -0.071041 16.340468 -0.148476 -0.806342 16.338468 -0.225472 -0.785830 0.333511 7.435810 0.884983 -7.655927 22.325722 11.671294 0.000001 -0.000000 0.000001 0.000001 -0.000000 0.000001 0.000001 -0.000000 0.000000 0.000001 -0.000000 -0.000001 0.000001 0.000001 -0.000001 0.000001 -0.000000 -0.000001 0.000001 0.000001 -0.000001 0.000001 -0.000000 0.000001 0.000001 -0.000000 0.000001 -36.171251 -4.595683 0.829137 -35.626612 -6.938620 -60.295961 -0.000013 -72.695486 -0.000035 -121.725487 -0.665738 34.364587 3.798528 6.874382 3.429726 18.895426 -1.442910 7.381023 -0.000002 0.000001 -0.000002 -0.286789 3.895697 -37.579083 2.875714 5.040338 -59.391582 -0.000000 -0.000000 -0.000000 0.456961 5.573211 -52.965194 3.258786 5.247252 -63.662192 0.000006 0.000001 -0.000001 -0.200729 5.707464 -61.599188 3.864448 5.504587 -70.119849 -0.000003 -0.000000 0.000001 -6.187795 4.711469 -72.648822 3.085925 5.158447 -61.755941 -0.000003 -0.000001 -0.000001 0.000002 -0.000001 0.000002 -38.460607 -8.127750 -7.920731 -39.540624 59.308397 93.020182 -0.000005 101.477562 -0.000000 -52.664891 -19.180358 -27.577251 8.550816 -4.679719 11.021736 21.222458 -18.138104 -18.758725 -0.000001 -0.000001 0.000001 -0.906375 1.614857 12.445587 0.768890 -2.565257 33.365228 0.000000 0.000001 0.000000 3.356545 -7.139044 51.715337 6.280925 -4.365515 110.425902 0.000001 0.000000 -0.000003 -3.136516 -2.757781 57.147356 5.384318 -4.600189 98.992261 -0.000001 -0.000001 0.000005 -3.739423 -3.453239 64.783327 4.014342 -4.612700 82.057524 -0.000000 0.000001 -0.000003 -0.000002 -0.000003 0.000000 -0.000001 0.000000 -0.000001 -0.000002 -0.000001 0.000000 -0.000001 0.000000 -0.000000 -0.000001 0.000000 -0.000000 -0.000001 0.000000 -0.000001 -0.000002 -0.000001 0.000001 -0.000001 0.000000 -0.000000 -0.000001 0.000000 -0.000000 -0.000001 0.000000 -0.000001 -0.000002 -0.000001 0.000001 -0.000000 -0.000002 -0.000000 -0.000000 -0.000002 -0.000000 -0.000000 -0.000002 -0.000000 
-0.479515 68.918770 1.372260 -16.451974 -38.994520 -8.646385 0.000000 0.000000 0.000000 -17.889312 42.774015 24.309895 25.659880 2.336529 -0.726281 -2.121693 1.240077 -2.837651 0.000000 -0.000000 -0.000000 -0.000001 0.000001 0.000001 5.893357 -0.025991 -9.890536 30.654408 4.118980 -1.091529 -21.074644 -10.070800 7.411897 0.000000 0.000001 0.000000 0.000000 -0.000004 0.000000 8.020436 -0.282795 -0.073336 16.181833 -0.168615 -0.811900 16.180684 -0.230651 -0.757616 0.293659 7.370706 0.926322 -8.401990 22.915218 11.350145 -0.000001 0.000000 -0.000001 -0.000001 0.000000 -0.000001 -0.000001 0.000000 -0.000000 -0.000001 0.000000 -0.000001 -0.000001 0.000000 -0.000001 -0.000001 0.000000 -0.000001 -0.000001 0.000000 -0.000001 -0.000001 0.000000 -0.000001 -0.000001 0.000000 -0.000001 -34.756630 -4.400297 0.089152 -29.819568 -6.978369 -59.256857 0.000169 -78.907420 0.000166 -123.710736 -1.894365 35.127765 1.466151 0.328076 3.987213 17.416069 -1.351323 6.716948 -0.000001 0.000005 0.000002 -0.487389 3.809586 -39.714220 2.721064 4.945962 -57.614995 0.000001 0.000001 0.000002 0.591264 5.739851 -54.280644 2.957401 5.087606 -60.316813 0.000002 0.000000 -0.000003 -0.485542 5.666365 -62.972042 3.407133 5.317841 -65.273283 0.000005 0.000001 0.000001 -5.212453 5.124698 -73.229675 2.585396 4.857578 -56.027178 -0.000001 0.000001 -0.000000 -0.000001 -0.000001 -0.000002 -35.774127 -7.493545 -5.947460 -31.207015 59.764504 84.096943 0.000198 104.353829 -0.000197 -52.928707 -21.101767 -25.927584 8.735850 -4.453965 11.037354 20.824494 -18.088077 -19.137302 0.000000 -0.000001 -0.000001 -0.906377 1.614834 12.445587 0.789921 -2.596872 33.832150 -0.000000 0.000001 -0.000001 3.299941 -7.091959 51.780477 6.265034 -4.371382 110.217178 -0.000000 -0.000000 0.000001 -2.923241 -2.914118 57.284947 5.327633 -4.608768 98.286299 -0.000001 -0.000001 -0.000001 -3.481483 -3.600830 64.973807 3.969891 -4.606310 81.504531 -0.000000 0.000001 -0.000001 0.000001 0.000001 0.000001 -0.000001 -0.000000 -0.000001 -0.000000 -0.000002 -0.000000 -0.000001 -0.000000 0.000000 -0.000001 -0.000000 0.000000 -0.000001 -0.000000 -0.000001 -0.000000 -0.000002 0.000000 -0.000001 -0.000000 0.000000 -0.000001 -0.000000 0.000000 -0.000001 -0.000000 -0.000001 -0.000000 -0.000002 0.000000 0.000000 0.000000 0.000000 0.000000 0.000000 0.000000 0.000000 0.000000 0.000000 
-0.269220 68.903198 1.592750 -16.187202 -38.747827 -8.224062 -0.000000 -0.000003 -0.000000 -17.359918 42.004287 23.254467 26.026620 3.124211 -0.764422 -2.522359 1.184697 -2.796817 -0.000000 0.000001 -0.000000 -0.000003 0.000000 0.000000 5.658265 -2.744459 -11.981437 29.972216 6.188433 -2.345066 -20.589117 -6.074461 9.130607 0.000000 -0.000001 -0.000000 -0.000000 -0.000001 0.000000 8.038140 -0.400269 -0.081672 15.942199 -0.186388 -0.778091 15.941460 -0.235765 -0.726041 0.255722 7.262844 0.959631 -9.192851 23.455807 10.946622 0.000001 0.000000 0.000001 0.000001 0.000000 0.000001 0.000001 0.000000 0.000001 0.000001 0.000000 0.000001 -0.000000 -0.000000 0.000002 0.000001 0.000000 0.000001 -0.000000 -0.000000 0.000002 0.000001 0.000000 0.000001 0.000001 0.000000 0.000001 -33.332945 -4.239057 -0.670168 -24.275112 -7.243194 -58.667302 -0.000162 -83.751397 -0.000125 -125.132863 -2.489197 35.112333 -1.760220 -7.794401 4.193944 15.416439 -1.204997 5.800224 0.000001 -0.000003 -0.000001 -0.782966 3.720676 -42.611225 2.544168 4.829620 -55.539113 -0.000002 0.000000 -0.000000 0.781311 5.958967 -56.068425 2.606998 4.872001 -56.281903 -0.000001 -0.000000 0.000002 -0.783872 5.679587 -64.819383 2.856543 5.029010 -59.173016 0.000001 0.000002 0.000002 -3.875347 5.653900 -74.033377 2.009392 4.416538 -48.911203 0.000001 0.000001 -0.000000 0.000002 0.000001 0.000002 -33.124283 -6.707750 -4.033012 -22.120234 59.349870 74.506907 0.000083 107.053605 -0.000070 -53.212283 -22.856950 -24.256648 8.931711 -4.226740 11.068339 20.426342 -18.033899 -19.514866 -0.000000 0.000002 -0.000001 -0.906359 1.614825 12.445592 0.811201 -2.628320 34.299147 -0.000000 0.000000 0.000000 3.243236 -7.045000 51.845630 6.249098 -4.377210 110.008427 -0.000001 -0.000001 -0.000003 -2.709229 -3.069390 57.423340 5.270851 -4.616655 97.580345 0.000001 -0.000000 -0.000000 -3.222658 -3.746654 65.165298 3.925512 -4.599493 80.951580 -0.000000 0.000001 -0.000001 -0.000001 0.000000 0.000001 0.000001 0.000000 -0.000001 0.000001 0.000000 -0.000001 0.000001 0.000000 -0.000000 0.000001 0.000000 -0.000000 0.000001 0.000000 -0.000001 0.000001 0.000000 -0.000001 0.000001 0.000000 -0.000000 0.000001 0.000000 -0.000000 0.000001 0.000000 -0.000001 0.000001 0.000000 -0.000001 -0.000000 -0.000003 -0.000000 -0.000000 -0.000003 -0.000000 -0.000000 -0.000003 -0.000000 
-0.058993 68.899239 1.788655 -15.900798 -38.314728 -7.798505 -0.000001 -0.000000 -0.000000 -16.877792 41.204735 22.205761 26.274143 3.764668 -0.772563 -2.824990 1.127250 -2.716719 0.000000 0.000001 -0.000000 0.000001 -0.000000 -0.000000 5.590700 -5.287743 -13.780567 28.837475 7.879404 -3.551922 -20.047660 -2.478731 10.875863 0.000000 -0.000003 0.000000 -0.000001 -0.000004 0.000000 8.051959 -0.518851 -0.098645 15.629776 -0.205127 -0.751544 15.629059 -0.249404 -0.721501 0.228895 7.131422 0.992212 -9.972590 23.935650 10.481260 0.000001 0.000000 -0.000000 0.000001 0.000000 -0.000000 0.000001 0.000000 -0.000001 0.000001 0.000000 -0.000000 -0.000000 -0.000000 -0.000002 0.000001 0.000000 -0.000000 -0.000000 -0.000000 -0.000002 0.000001 0.000000 -0.000000 0.000001 0.000000 -0.000000 -31.905979 -4.114083 -1.444565 -19.092459 -7.784019 -58.535998 0.000715 -87.306408 0.000671 -125.875605 -2.415437 34.582153 -5.277433 -15.244837 3.800792 13.274363 -1.017903 4.794028 -0.000001 -0.000001 0.000002 -1.128660 3.663330 -45.729677 2.406505 4.732525 -53.887252 -0.000000 0.000001 -0.000000 0.995666 6.185459 -57.996830 2.318703 4.667430 -52.815691 0.000002 0.000001 -0.000001 -0.940305 5.789962 -66.782127 2.369160 4.705179 -53.433383 -0.000001 0.000000 -0.000002 -2.418805 6.182131 -74.917545 1.533136 3.952224 -42.391207 0.000002 0.000002 -0.000000 -0.000002 -0.000001 0.000001 -30.517394 -5.776074 -2.187021 -12.998052 57.890040 64.989605 0.000090 109.504052 -0.000075 -53.439970 -24.354745 -22.460712 9.137758 -3.997909 11.114065 20.028075 -17.975531 -19.891365 -0.000002 -0.000001 -0.000000 -0.906381 1.614828 12.445612 0.832741 -2.659596 34.766134 0.000000 0.000001 -0.000001 3.186409 -6.998187 51.910855 6.233181 -4.382948 109.799703 -0.000001 0.000000 -0.000001 -2.494494 -3.223592 57.562546 5.213994 -4.623840 96.874397 0.000000 -0.000002 0.000001 -2.962965 -3.890776 65.357814 3.881235 -4.592217 80.398621 0.000001 0.000000 0.000002 -0.000001 0.000002 0.000002 -0.000000 0.000001 0.000000 0.000001 -0.000001 0.000001 -0.000000 0.000001 0.000000 -0.000000 0.000001 0.000000 -0.000000 0.000001 0.000000 0.000001 -0.000001 0.000001 -0.000000 0.000001 0.000000 -0.000000 0.000001 0.000000 -0.000000 0.000001 0.000000 0.000001 -0.000001 0.000001 -0.000001 -0.000000 -0.000000 -0.000001 -0.000000 -0.000000 -0.000001 -0.000000 -0.000000 
